<svg xmlns="http://www.w3.org/2000/svg" version="1.1" xmlns:xlink="http://www.w3.org/1999/xlink" width="512" height="512" x="0" y="0" viewBox="0 0 49.999 49.999" style="enable-background:new 0 0 512 512" xml:space="preserve" class=""><g><path d="M46.12 26.928 20.133.939a1.665 1.665 0 0 0-2.352 0 1.667 1.667 0 0 0 0 2.353L43.77 29.28c3.871 3.869 3.871 10.167 0 14.036-3.869 3.869-10.165 3.869-14.036-.001L5.295 18.877c-2.624-2.624-2.624-6.897 0-9.52 2.622-2.624 6.896-2.623 9.52.001l21.121 21.121a3.36 3.36 0 1 1-4.752 4.753L12.697 16.749a1.664 1.664 0 0 0-2.352 2.353L28.83 37.587c2.607 2.608 6.853 2.611 9.46.004a6.704 6.704 0 0 0 0-9.466L17.17 7.003c-3.923-3.923-10.307-3.922-14.229 0-3.921 3.923-3.921 10.306.002 14.228l24.436 24.438c5.169 5.168 13.576 5.169 18.745.001 5.168-5.168 5.166-13.573-.004-18.742z" fill="#8d9198" opacity="1" data-original="#000000" class=""></path></g></svg>