<svg xmlns="http://www.w3.org/2000/svg" version="1.1" xmlns:xlink="http://www.w3.org/1999/xlink" width="512" height="512" x="0" y="0" viewBox="0 0 24 24" style="enable-background:new 0 0 512 512" xml:space="preserve"><g><path d="M22.75 10.5v2a2.75 2.75 0 0 1-1.5 2.5V8.05a2.75 2.75 0 0 1 1.5 2.45zm-21.5 0v2a2.75 2.75 0 0 0 1.5 2.5V8.05a2.75 2.75 0 0 0-1.5 2.45zM19.75 8v9A2.75 2.75 0 0 1 17 19.75h-4.92l-2.43 2.1a1.24 1.24 0 0 1-.81.31 1.2 1.2 0 0 1-.52-.16 1.23 1.23 0 0 1-.73-1.13v-1.12H7A2.75 2.75 0 0 1 4.25 17V8A2.75 2.75 0 0 1 7 5.25h7.25V2a.75.75 0 0 1 1.5 0v3.25H17A2.75 2.75 0 0 1 19.75 8zm-4 6.5a.76.76 0 0 0-.75-.75H9a.75.75 0 0 0 0 1.5h6a.76.76 0 0 0 .75-.75zm0-4a.76.76 0 0 0-.75-.75H9a.75.75 0 0 0 0 1.5h6a.76.76 0 0 0 .75-.75z" fill="#1e8073" opacity="1" data-original="#000000"></path></g></svg>